<?xml version="1.0" encoding="UTF-8" standalone="no"?>
<svg
   viewBox="0 0 1024 1024"
   version="1.1"
   width="1024"
   height="1024"
   id="svg4"
   sodipodi:docname="icons-vector.svg"
   inkscape:version="1.4.2 (ebf0e940d0, 2025-05-08)"
   xmlns:inkscape="http://www.inkscape.org/namespaces/inkscape"
   xmlns:sodipodi="http://sodipodi.sourceforge.net/DTD/sodipodi-0.dtd"
   xmlns="http://www.w3.org/2000/svg"
   xmlns:svg="http://www.w3.org/2000/svg">
  <defs
     id="defs4" />
  <sodipodi:namedview
     id="namedview4"
     pagecolor="#ffffff"
     bordercolor="#000000"
     borderopacity="0.25"
     inkscape:showpageshadow="2"
     inkscape:pageopacity="0.0"
     inkscape:pagecheckerboard="0"
     inkscape:deskcolor="#d1d1d1"
     inkscape:zoom="0.36132812"
     inkscape:cx="510.61622"
     inkscape:cy="510.61622"
     inkscape:window-width="1886"
     inkscape:window-height="1024"
     inkscape:window-x="2575"
     inkscape:window-y="37"
     inkscape:window-maximized="1"
     inkscape:current-layer="svg4" />
  <path
     d="m 991.15472,508.13585 c 0,40.57359 -7.72831,85.01132 -13.52453,125.58492 -5.79623,-3.86415 -40.57359,-46.36982 -40.57359,-54.09812 0,-5.79622 5.79623,-61.82641 5.79623,-65.69056 0,-247.30566 -202.86793,-444.377383 -446.30943,-444.377383 -245.37359,0 -446.309438,197.071723 -446.309438,442.445313 0,253.10188 214.460378,442.44527 448.241508,442.44527 123.65283,0 291.7434,-61.82641 386.41509,-224.12076 9.66038,13.52453 32.84529,34.77737 32.84529,40.57358 0,3.86415 -15.4566,19.32077 -21.25283,30.91321 -54.09812,79.21511 -144.90567,139.10945 -212.5283,166.15851 -59.89434,25.11697 -127.51698,36.70947 -189.3434,36.70947 -175.81887,0 -374.82264,-90.80759 -467.562264,-328.45287 C 17.388679,651.10944 0,581.55472 0,548.70944 V 475.29057 C 32.845283,170.02264 264.69434,19.320745 494.61132,19.320745 c 274.35471,0 496.5434,212.528315 496.5434,488.815105 z M 463.69812,247.30566 c 0,5.79623 -3.86416,23.18491 -3.86416,27.04906 0,7.7283 65.69057,40.57359 65.69057,48.30189 0,3.86415 -9.66038,25.11698 -13.52453,36.70943 l -77.28302,-46.36981 c -7.7283,3.86415 -25.11698,5.79622 -25.11698,17.38868 0,3.86415 5.79622,38.64151 7.7283,57.96226 3.86415,19.32075 7.7283,44.43774 9.66038,65.69057 1.93207,11.59245 3.86415,25.11698 5.79623,38.64151 7.7283,50.23397 17.38868,106.26415 23.1849,158.43019 9.66038,3.86415 19.32075,5.79622 28.98113,9.66038 l 81.14718,-112.06038 c 11.59244,7.7283 23.1849,17.38867 34.77735,25.11698 l -81.14717,110.1283 c 17.38868,15.4566 23.18491,42.50566 23.18491,57.96226 0,52.16604 -48.30189,90.80755 -90.80755,90.80755 -52.16604,0 -88.87547,-42.50565 -88.87547,-88.87547 0,-11.59245 0,-27.04905 9.66037,-38.64151 L 231.84906,593.14717 c -11.59246,3.86415 -27.04906,9.66038 -36.70944,9.66038 -46.36981,0 -77.28302,-36.70944 -77.28302,-79.2151 0,-46.36981 34.77736,-81.14716 79.21509,-81.14716 3.86416,0 13.52453,1.93207 17.38869,3.86415 L 320.72453,297.53963 c -11.59246,-21.25284 -17.38868,-30.91321 -17.38868,-50.23397 0,-42.50566 34.77736,-81.14716 79.21509,-81.14716 46.36981,0 81.14718,38.6415 81.14718,81.14716 z m 421.19244,158.4302 c 0,36.70943 -17.38868,86.94339 -48.30188,121.72076 9.66038,13.52452 19.32075,27.04905 30.9132,36.70942 5.79624,0 15.45661,-1.93207 21.25284,3.86415 21.25283,19.32076 38.6415,48.30189 57.96226,71.48679 C 960.24151,654.97359 1024,720.66417 1024,747.71322 c 0,27.04904 -23.1849,44.43773 -42.50566,44.43773 -23.18491,0 -75.35094,-73.41887 -83.07925,-83.07925 -23.1849,-34.77735 -71.48679,-71.48679 -71.48679,-102.4 1.93208,-15.4566 -21.25283,-30.91319 -30.91321,-46.36981 -27.04906,15.45661 -63.75849,23.1849 -88.87547,23.1849 -102.4,0 -175.81887,-85.01131 -175.81887,-179.68301 0,-96.60377 79.2151,-175.81887 177.75094,-175.81887 100.46793,0 175.81887,83.07925 175.81887,177.75095 z m -50.23396,1.93207 c 0,73.41887 -61.82641,125.5849 -127.51698,125.5849 -73.41887,0 -127.51697,-61.82641 -127.51697,-129.44905 0,-71.4868 59.89433,-125.5849 127.51697,-125.5849 75.35094,0 127.51698,63.75849 127.51698,129.44905 z m -469.49434,-79.2151 c 19.32076,110.12831 34.77736,220.25661 52.16604,330.38492 -5.79623,3.86415 -13.52452,7.7283 -21.25283,13.52452 L 264.69434,564.16604 c 7.72831,-25.11698 9.66038,-27.04906 9.66038,-42.50566 0,-19.32075 -3.86416,-32.84528 -21.25284,-54.09811 L 357.43396,326.52076 c 3.86416,0 7.7283,1.93207 7.7283,1.93207 z"
     fill-rule="evenodd"
     fill="#0e324f"
     id="path1"
     style="stroke-width:1.93207" />
</svg>
